<?xml version="1.0" encoding="utf-8"?>
<!-- Generator: Adobe Illustrator 19.0.0, SVG Export Plug-In . SVG Version: 6.00 Build 0)  -->
<svg version="1.1" id="Layer_1" xmlns="http://www.w3.org/2000/svg" xmlns:xlink="http://www.w3.org/1999/xlink" x="0px" y="0px"
	 viewBox="0 219.8 612 354.2" style="enable-background:new 0 219.8 612 354.2;" xml:space="preserve" width="90" height="51">
<style type="text/css">
	.st0{fill:#ffffff;stroke-width:7;stroke:#fff;"}
</style>
<path d="M611.5,231.2c0-0.9,0.5-2.4,0.5-2.8c-2.4-0.9-4.3-1.4-6.2-1.4c-6.2,0-10,5.7-14.2,8.1c-4.3,0.5-8.1,0.5-12.3,0.5
	c-2.8,1.4-2.8,3.8-5.7,3.8c-2.4,0-3.8-1.4-3.8-2.4c0-0.9,0-2.4,0.5-4.7c-0.5-0.5-1.4-0.9-1.9-0.9c-5.2,0-8.5,2.4-11.9,7.6
	c-3.3,0-1.9-4.3-3.3-7.6c-10.4,0-14.7,15.2-26.6,15.2c0.9-2.8,4.3-8.1,4.3-11.4c0-2.4-1.4-3.8-5.2-3.8c-4.9,0-20,19.1-34.1,36.4
	c3.5-6.8,7.1-13.6,10.8-20.3c1.9-3.8,8.5-9.5,8.1-10c-1.9-1.9-3.3-3.3-7.6-3.3c-0.9,0-2.4,0.5-3.8,0.5c-2.9,2.5-6,5.3-8.4,6.5
	c0.4-1.1,0.9-2.1,1.3-3.2c1.9-3.3,4.7,0.5,7.1-6.2c-1.9-0.5-3.8-0.5-7.1-0.5c-2.7,2.9-5.2,5.8-7.7,8.7c-1.4-1-2.7-2.1-4.2-2.1
	c-0.9,0-2.2,0.5-3.8,1.5V237c0-4.7-0.5-9.5-2.8-9.5c-2.5,2.2-4.5,4.6-6.5,6.8c-0.4-0.1-0.9-0.2-1.6-0.2c-1.3,1.6-2.5,3-3.4,4.7
	c-7.6-0.1-3.8-1.6-7-7.6c-1.1,0-2.3,1-3.6,2.5c-0.6,0-1.3-0.1-2.2-0.1c-3.7,2.8-6.8,6.2-9.5,10c-3.2,0-3.2-1.9-3.2-4.3
	c0-1.4,6.2-10,7.6-13.8c-2.1-3.3-4.9-5.7-7.3-5.7c-10,8.6-18.9,17.2-27,26c-1.5,0.4-3.2,0.6-5.3,0.6c-3.8-2.4-9-9.5-15.2-9.5
	c-5.7,0-5.7,5.2-7.6,5.2c-5.2,0-4.7-5.7-8.1-8.5c-2.4,1.4-3.3,3.8-5.7,5.2c0,19-21.8,94.5-25.6,103c-1.4,0-3.3,0.5-4.3,0.5
	c-14.2,0-34.7-108.2-33.7-108.2c-0.9,0-1.4-0.5-2.8-0.5c-3.3,3.8-6.6,7.6-10,12.3c-5.2,0-3.3-11.4-10-12.3
	c-3.8,3.3-0.5,9.5-12.8,9.5c-1.9,4.3,0,9.5-5.2,11.4c-0.5-5.2-8.5-20.4-12.3-20.9c-2.8,4.7-4.3,12.8-10,12.8c-3.3-2.4-5.7-7.6-9.5-9
	c-0.5,1.4-2.4,3.3-3.3,3.8c-2.4,0-2.4-1.9-3.8-3.8l-1.4,0.9c-4.3,2.4-5.7,2.8-12.3,3.3c-0.5-0.9-1-4.3-4.7-4.3
	c0.5,4.7-40.4,140.1-40.4,138.2c-2.4,0-5.2,0.5-7.1,0.5c-1.4-0.5-2.4-1.4-3.8-2.8c0-2.4-31.8-122-31.8-143.4c0-1.4,1.9-3.3,2.4-2.8
	c-1.9-1.9-2.8-1.9-6.6-1.9c-2.8,2.8-4.7,9-7.1,12.3c-3.8-0.9-4.7-3.3-9.5-3.8c-5.2,0.9-10.4,16.1-15.7,16.1
	c-3.8-1.4-10-3.8-12.3-8.1c-7.1,0-8.1,14.2-8.1,14.2c0,8.5,4.7,14.7,4.7,21.8c0,2.4-0.5,4.7-2.4,6.2c-3.3-3.3-4.3-4.7-4.3-6.6
	c0-0.9,0.5-1.4,0.5-2.8c0-1.4-7.1-12.3-13.8-25.2c0-9.5-9-5.7-15.2-7.6c-3.3-3.8-5.7-7.6-11.9-8.1c-3.3,0-1.9,12.3-5.7,12.3
	c-1.4,0-2.8-0.5-4.7-0.5c-0.9,0-1.9,0-2.8,0.5c-5.9,4.4-5.9,4.9-10.6,5.3c30.4,60.3,76,263.5,76,306.2c0,3.3-0.5,5.2-1,6.2
	c1,0.5,1.4,0.5,1.9,0.5c2.4,0,1.4-2.8,4.3-4.3c4.7,0,9,0,12.8,1.4c1.4-2.4,1.9-12.8,4.3-12.8c4.7,0,7.6,2.8,10.4,2.8
	c2.4,0,4.7-7.6,8.1-7.6c4.3,0,7.1,4.7,10.4,8.1c3.3,0,3.8-8.5,3.8-13.3c0-12.3-2.8-26.6-2.8-37.5V497c0-4.3,0.5-7.6,5.2-7.6
	c3.8,23.3,17.6,39.4,17.6,61.2c0,2.4,0,4.7-0.5,7.1c1.9,1.9,2.4,4.3,4.3,6.6c7.1,0,0.9-8.5,14.2-8.5c10,0,7.6-12.3,16.1-17.1
	c2.8,1.9,4.3,4.3,5.7,6.6c0,2.4-0.5,5.7-0.5,9c0,5.2,0.5,10,3.3,10c2.8-1.4,4.3-2.8,6.6-4.7c10.4,0,5.7,9,11.9,9
	c4.7-9.5,7.1-51.7,18-81.7c0-2.8,7.1-28.5,13.3-35.6h4.7c5.7,27.1,40.4,67.4,40.4,103v6.2c0,1.4,1.4,2.8,1.9,3.3
	c2.8,2.8,3.8,4.7,8.1,4.7c1.4-2.8,1.4-6.6,4.7-7.6c4.7,2.8,6.6,7.6,12.8,7.6c1.9-3.3,4.3-5.2,6.6-7.6c1.9,0,2.4,1.4,2.4,2.4v1.9
	c0,1.9,0.5,3.3,3.3,3.3c2.8-3.8,0.5-9,7.6-9c1,1.9,2.4,2.8,3.8,4.7c4.3-8.1,18.5-58.4,21.4-58.4c0.9,0,1.4,3.3,1.4,7.6
	c0,5.7-0.5,13.8-0.5,21.4c0,8.5,1,15.7,4.7,15.7c6.6,0,10,4.7,15.2,10.4c3.8-3.3,4.3-13.8,13.3-13.8c0,1.9,1.9,2.8,2.8,4.3
	c3.3-1.4,4.1-4.4,5.3-7.3c4.4,5.8,9,11.3,13.6,16.5c0.6,4.5,1.5,7.9,3.9,7.9c-0.3-4.9-0.4-10-0.4-15.1c0.2-1.7,0.5-3.1,0.9-3.4
	c6.2,0,13.3,9,19.5,15.7c5.2,0,1-12.3,5.2-12.3c10,1.4,10.4,12.3,19.9,12.3c0.5-1,0.9-7.6,2.4-7.6c1.9,0,5.2,2.8,9.5,3.3
	c0,0,0.5-0.5,1.4-1.9c-1.4-9-23.3-46-23.3-57.9c0-3.3,2.4-1.9,4.7-3.3c7.1,16.1,47,69.3,64.1,75.5c0.9-2.8,0.9-8.1,4.3-8.1
	c3.3,0,3.8,2.4,7.6,3.3c2.4-1.4,5.2-4.7,5.2-6.2c-1.9-1.9-2.8-1.9-3.3-5.2c1.4,0,2.8-0.5,3.8-0.5c2.8,2.4,14.7,11.9,16.6,11.9
	c1,0,2.8-1.4,3.3-3.3c-1.9-4.3-0.5-7.6-4.7-9.5c0-2.4,0.5-2.8,2.4-2.8c2.4,0,21.4,19.5,37,19.5c1.9,0,3.3,0,4.3-1.9
	c-9.5-17.6-65.5-26.1-87.4-118.2c1.4-3.8,8.1-5.2,16.6-5.2c19,0,47.5,7.1,51.3,12.3h3.3c0-10.9-15.7-8.5-15.7-18.5
	c3.3-2.8,10-4.7,12.3-7.6c-4.3-5.2-13.8-8.1-19.9-10.9c1.4-7.6,9.5-3.8,11.4-9c-6.2-3.3-11.4,1.4-19-6.2c0-5.2,20.4,0.5,23.3-10.9
	c-5.2-2.8-10-4.7-15.7-4.7c1.9-8.1,15.7-9,15.7-14.2c-3.3-1.4-9-1.4-11.4-1.9c0-12.3,15.7-7.1,15.7-14.7c-0.9-2.4-1.4-3.3-4.3-4.7
	c1-1.4,7.6-6.2,7.6-8.1c0-5.7-10.9-7.6-15.7-7.6c-12.3,0-27.5,5.7-39.4,5.7c-6.6,0-12.8-1.9-16.1-7.6
	C536,294.8,562.6,265.4,611.5,231.2z"/>
<path class="st0" d="M611.5,231.2c0-0.9,0.5-2.4,0.5-2.8c-2.4-0.9-4.3-1.4-6.2-1.4c-6.2,0-10,5.7-14.2,8.1
	c-4.3,0.5-8.1,0.5-12.3,0.5c-2.8,1.4-2.8,3.8-5.7,3.8c-2.4,0-3.8-1.4-3.8-2.4c0-0.9,0-2.4,0.5-4.7c-0.5-0.5-1.4-0.9-1.9-0.9
	c-5.2,0-8.5,2.4-11.9,7.6c-3.3,0-1.9-4.3-3.3-7.6c-10.4,0-14.7,15.2-26.6,15.2c0.9-2.8,4.3-8.1,4.3-11.4c0-2.4-1.4-3.8-5.2-3.8
	c-4.9,0-20,19.1-34.1,36.4c3.5-6.8,7.1-13.6,10.8-20.3c1.9-3.8,8.5-9.5,8.1-10c-1.9-1.9-3.3-3.3-7.6-3.3c-0.9,0-2.4,0.5-3.8,0.5
	c-2.9,2.5-6,5.3-8.4,6.5c0.4-1.1,0.9-2.1,1.3-3.2c1.9-3.3,4.7,0.5,7.1-6.2c-1.9-0.5-3.8-0.5-7.1-0.5c-2.7,2.9-5.2,5.8-7.7,8.7
	c-1.4-1-2.7-2.1-4.2-2.1c-0.9,0-2.2,0.5-3.8,1.5V237c0-4.7-0.5-9.5-2.8-9.5c-2.5,2.2-4.5,4.6-6.5,6.8c-0.4-0.1-0.9-0.2-1.6-0.2
	c-1.3,1.6-2.5,3-3.4,4.7c-7.6-0.1-3.8-1.6-7-7.6c-1.1,0-2.3,1-3.6,2.5c-0.6,0-1.3-0.1-2.2-0.1c-3.7,2.8-6.8,6.2-9.5,10
	c-3.2,0-3.2-1.9-3.2-4.3c0-1.4,6.2-10,7.6-13.8c-2.1-3.3-4.9-5.7-7.3-5.7c-10,8.6-18.9,17.2-27,26c-1.5,0.4-3.2,0.6-5.3,0.6
	c-3.8-2.4-9-9.5-15.2-9.5c-5.7,0-5.7,5.2-7.6,5.2c-5.2,0-4.7-5.7-8.1-8.5c-2.4,1.4-3.3,3.8-5.7,5.2c0,19-21.8,94.5-25.6,103
	c-1.4,0-3.3,0.5-4.3,0.5c-14.2,0-34.7-108.2-33.7-108.2c-0.9,0-1.4-0.5-2.8-0.5c-3.3,3.8-6.6,7.6-10,12.3c-5.2,0-3.3-11.4-10-12.3
	c-3.8,3.3-0.5,9.5-12.8,9.5c-1.9,4.3,0,9.5-5.2,11.4c-0.5-5.2-8.5-20.4-12.3-20.9c-2.8,4.7-4.3,12.8-10,12.8c-3.3-2.4-5.7-7.6-9.5-9
	c-0.5,1.4-2.4,3.3-3.3,3.8c-2.4,0-2.4-1.9-3.8-3.8l-1.4,0.9c-4.3,2.4-5.7,2.8-12.3,3.3c-0.5-0.9-1-4.3-4.7-4.3
	c0.5,4.7-40.4,140.1-40.4,138.2c-2.4,0-5.2,0.5-7.1,0.5c-1.4-0.5-2.4-1.4-3.8-2.8c0-2.4-31.8-122-31.8-143.4c0-1.4,1.9-3.3,2.4-2.8
	c-1.9-1.9-2.8-1.9-6.6-1.9c-2.8,2.8-4.7,9-7.1,12.3c-3.8-0.9-4.7-3.3-9.5-3.8c-5.2,0.9-10.4,16.1-15.7,16.1
	c-3.8-1.4-10-3.8-12.3-8.1c-7.1,0-8.1,14.2-8.1,14.2c0,8.5,4.7,14.7,4.7,21.8c0,2.4-0.5,4.7-2.4,6.2c-3.3-3.3-4.3-4.7-4.3-6.6
	c0-0.9,0.5-1.4,0.5-2.8s-7.1-12.3-13.8-25.2c0-9.5-9-5.7-15.2-7.6c-3.3-3.8-5.7-7.6-11.9-8.1c-3.3,0-1.9,12.3-5.7,12.3
	c-1.4,0-2.8-0.5-4.7-0.5c-0.9,0-1.9,0-2.8,0.5c-5.9,4.4-5.9,4.9-10.6,5.3c30.4,60.3,76,263.5,76,306.2c0,3.3-0.5,5.2-1,6.2
	c1,0.5,1.4,0.5,1.9,0.5c2.4,0,1.4-2.8,4.3-4.3c4.7,0,9,0,12.8,1.4c1.4-2.4,1.9-12.8,4.3-12.8c4.7,0,7.6,2.8,10.4,2.8
	c2.4,0,4.7-7.6,8.1-7.6c4.3,0,7.1,4.7,10.4,8.1c3.3,0,3.8-8.5,3.8-13.3c0-12.3-2.8-26.6-2.8-37.5V497c0-4.3,0.5-7.6,5.2-7.6
	c3.8,23.3,17.6,39.4,17.6,61.2c0,2.4,0,4.7-0.5,7.1c1.9,1.9,2.4,4.3,4.3,6.6c7.1,0,0.9-8.5,14.2-8.5c10,0,7.6-12.3,16.1-17.1
	c2.8,1.9,4.3,4.3,5.7,6.6c0,2.4-0.5,5.7-0.5,9c0,5.2,0.5,10,3.3,10c2.8-1.4,4.3-2.8,6.6-4.7c10.4,0,5.7,9,11.9,9
	c4.7-9.5,7.1-51.7,18-81.7c0-2.8,7.1-28.5,13.3-35.6h4.7c5.7,27.1,40.4,67.4,40.4,103v6.2c0,1.4,1.4,2.8,1.9,3.3
	c2.8,2.8,3.8,4.7,8.1,4.7c1.4-2.8,1.4-6.6,4.7-7.6c4.7,2.8,6.6,7.6,12.8,7.6c1.9-3.3,4.3-5.2,6.6-7.6c1.9,0,2.4,1.4,2.4,2.4v1.9
	c0,1.9,0.5,3.3,3.3,3.3c2.8-3.8,0.5-9,7.6-9c1,1.9,2.4,2.8,3.8,4.7c4.3-8.1,18.5-58.4,21.4-58.4c0.9,0,1.4,3.3,1.4,7.6
	c0,5.7-0.5,13.8-0.5,21.4c0,8.5,1,15.7,4.7,15.7c6.6,0,10,4.7,15.2,10.4c3.8-3.3,4.3-13.8,13.3-13.8c0,1.9,1.9,2.8,2.8,4.3
	c3.3-1.4,4.1-4.4,5.3-7.3c4.4,5.8,9,11.3,13.6,16.5c0.6,4.5,1.5,7.9,3.9,7.9c-0.3-4.9-0.4-10-0.4-15.1c0.2-1.7,0.5-3.1,0.9-3.4
	c6.2,0,13.3,9,19.5,15.7c5.2,0,1-12.3,5.2-12.3c10,1.4,10.4,12.3,19.9,12.3c0.5-1,0.9-7.6,2.4-7.6c1.9,0,5.2,2.8,9.5,3.3
	c0,0,0.5-0.5,1.4-1.9c-1.4-9-23.3-46-23.3-57.9c0-3.3,2.4-1.9,4.7-3.3c7.1,16.1,47,69.3,64.1,75.5c0.9-2.8,0.9-8.1,4.3-8.1
	c3.3,0,3.8,2.4,7.6,3.3c2.4-1.4,5.2-4.7,5.2-6.2c-1.9-1.9-2.8-1.9-3.3-5.2c1.4,0,2.8-0.5,3.8-0.5c2.8,2.4,14.7,11.9,16.6,11.9
	c1,0,2.8-1.4,3.3-3.3c-1.9-4.3-0.5-7.6-4.7-9.5c0-2.4,0.5-2.8,2.4-2.8c2.4,0,21.4,19.5,37,19.5c1.9,0,3.3,0,4.3-1.9
	c-9.5-17.6-65.5-26.1-87.4-118.2c1.4-3.8,8.1-5.2,16.6-5.2c19,0,47.5,7.1,51.3,12.3h3.3c0-10.9-15.7-8.5-15.7-18.5
	c3.3-2.8,10-4.7,12.3-7.6c-4.3-5.2-13.8-8.1-19.9-10.9c1.4-7.6,9.5-3.8,11.4-9c-6.2-3.3-11.4,1.4-19-6.2c0-5.2,20.4,0.5,23.3-10.9
	c-5.2-2.8-10-4.7-15.7-4.7c1.9-8.1,15.7-9,15.7-14.2c-3.3-1.4-9-1.4-11.4-1.9c0-12.3,15.7-7.1,15.7-14.7c-0.9-2.4-1.4-3.3-4.3-4.7
	c1-1.4,7.6-6.2,7.6-8.1c0-5.7-10.9-7.6-15.7-7.6c-12.3,0-27.5,5.7-39.4,5.7c-6.6,0-12.8-1.9-16.1-7.6
	C536,294.8,562.6,265.4,611.5,231.2z"/>
</svg>
